<svg xmlns="http://www.w3.org/2000/svg" viewBox="0 0 107.46 115.23"><title>Asset 34</title><g id="Layer_2" data-name="Layer 2"><g id="Layer_1-2" data-name="Layer 1"><path d="M83.93,115.23H23.53A23.56,23.56,0,0,1,0,91.7V23.53A23.56,23.56,0,0,1,23.53,0h60.4a23.55,23.55,0,0,1,23.53,23.53V91.7A23.55,23.55,0,0,1,83.93,115.23ZM23.53,4A19.55,19.55,0,0,0,4,23.53V91.7a19.55,19.55,0,0,0,19.53,19.53h60.4A19.55,19.55,0,0,0,103.46,91.7V23.53A19.55,19.55,0,0,0,83.93,4Z"/><path d="M19.64,39.63A4.79,4.79,0,0,1,19,42.36a2.23,2.23,0,0,1-1.93.89,2.22,2.22,0,0,1-1.93-.89,4.79,4.79,0,0,1-.63-2.73v-16a4.46,4.46,0,0,1,.59-2.57,2,2,0,0,1,1.78-.85,2.67,2.67,0,0,1,1.4.38,5.12,5.12,0,0,1,1.32,1.27l9.44,12.47V23.87a4.8,4.8,0,0,1,.63-2.74,2.51,2.51,0,0,1,3.85,0,4.72,4.72,0,0,1,.64,2.74V40.2a4.08,4.08,0,0,1-.57,2.41,2.07,2.07,0,0,1-1.78.78,2.61,2.61,0,0,1-1.49-.45,5.91,5.91,0,0,1-1.44-1.41L19.64,29.3Z"/><path d="M47.43,20.52a5.12,5.12,0,0,1,2.73.59,2,2,0,0,1,.91,1.82,2,2,0,0,1-.9,1.77,5.13,5.13,0,0,1-2.74.58H43.27v4h3.59a5.13,5.13,0,0,1,2.74.58,2,2,0,0,1,.9,1.79,2,2,0,0,1-.9,1.78,5.13,5.13,0,0,1-2.74.58H43.27v4.21h4.31a5.21,5.21,0,0,1,2.75.58,2.24,2.24,0,0,1,0,3.57,5.11,5.11,0,0,1-2.75.59h-6a4.11,4.11,0,0,1-2.73-.68,3.39,3.39,0,0,1-.74-2.55V24.12a4,4,0,0,1,.78-2.83,3.91,3.91,0,0,1,2.75-.77Z"/><path d="M63.31,40.11A4.37,4.37,0,0,1,62,42.44a3.52,3.52,0,0,1-2.38.81,3.14,3.14,0,0,1-2.27-.77,5.13,5.13,0,0,1-1.23-2.6L52.38,23.63c0-.12,0-.26,0-.41a6.57,6.57,0,0,1,0-.71A2.12,2.12,0,0,1,53,20.83a2.71,2.71,0,0,1,1.87-.63,2.37,2.37,0,0,1,1.64.58,2.86,2.86,0,0,1,.83,1.67l2.68,14.26,3.73-14.32a2.84,2.84,0,0,1,1-1.62,3,3,0,0,1,1.84-.54,2.82,2.82,0,0,1,1.8.55,3,3,0,0,1,1,1.67l3.67,14.26,2.68-13.92a3.77,3.77,0,0,1,.87-2,2.35,2.35,0,0,1,1.72-.6,2.53,2.53,0,0,1,1.82.67,2.25,2.25,0,0,1,.71,1.7,6.4,6.4,0,0,1,0,.73c0,.27-.09.53-.15.79L76.76,39.88a5.32,5.32,0,0,1-1.25,2.7,4,4,0,0,1-4.49,0,4,4,0,0,1-1.2-2.18L66.48,27.57Z"/><path d="M97.74,36a6.91,6.91,0,0,1-2.4,5.47A9.28,9.28,0,0,1,89,43.58a11.23,11.23,0,0,1-5.13-1.08c-1.42-.72-2.13-1.56-2.13-2.53a2.16,2.16,0,0,1,.69-1.67,2.6,2.6,0,0,1,1.84-.63,10.55,10.55,0,0,1,2.39.57,10.62,10.62,0,0,0,3.07.57,2.56,2.56,0,0,0,1.8-.66,2.12,2.12,0,0,0,.73-1.65,2.17,2.17,0,0,0-.74-1.71,9.54,9.54,0,0,0-3.18-1.39,11.59,11.59,0,0,1-4.94-2.49A5.37,5.37,0,0,1,82,27a6.49,6.49,0,0,1,2.26-5.12,8.57,8.57,0,0,1,5.88-2,9,9,0,0,1,4.4.95,2.75,2.75,0,0,1,1.73,2.36,2.13,2.13,0,0,1-.61,1.6,2.34,2.34,0,0,1-1.69.58A8.23,8.23,0,0,1,92,25a7.84,7.84,0,0,0-2-.4,2.84,2.84,0,0,0-1.82.54,1.67,1.67,0,0,0-.68,1.39c0,.91,1,1.69,3,2.31l1.08.34a11,11,0,0,1,4.71,2.72A5.93,5.93,0,0,1,97.74,36Z"/><rect x="15.57" y="52.31" width="49.46" height="3.04"/><rect x="15.57" y="61.75" width="49.46" height="3.04"/><rect x="15.57" y="71.18" width="49.46" height="3.05"/><rect x="15.57" y="80.62" width="74.57" height="3.04"/><rect x="15.57" y="90.06" width="74.57" height="3.04"/><rect x="15.57" y="99.49" width="74.57" height="3.04"/><rect x="71.88" y="48.51" width="18.26" height="27.4"/></g></g></svg>