<?xml version="1.0" encoding="UTF-8" standalone="no"?> <svg xmlns="http://www.w3.org/2000/svg" viewBox="0 0 33.75 45.86"><defs><style>.cls-1{fill:none;stroke:#333;stroke-linecap:round;stroke-linejoin:round;stroke-width:2px;}</style></defs><title>Asset 8</title><g id="Layer_2" data-name="Layer 2"><g id="Layer_2-2" data-name="Layer 2"><rect class="cls-1" x="1" y="22.68" width="31.75" height="5.52" rx="1"/><path class="cls-1" d="M3.19,28.2,6.58,44a1,1,0,0,0,1,.82H26.15a1,1,0,0,0,1-.82L30.56,28.2"/><path class="cls-1" d="M6.93,22.56S.42,20.33,1.07,12.16c0,0,8.34.52,12.17,10.24,0,0-2.19-5.83,3.65-11.88"/><path class="cls-1" d="M26.84,22.56s6.51-2.23,5.87-10.4c0,0-8.34.52-12.18,10.24,0,0,2.19-5.83-3.64-11.88"/><path class="cls-1" d="M6.31,14S6.18,10.54,10,6.1c0,0,4.63,3.5,5.24,6.39"/><path class="cls-1" d="M27.47,14s.13-3.43-3.71-7.87c0,0-4.62,3.5-5.24,6.39"/><path class="cls-1" d="M12.1,7.92S14,3,16.87,1"/><path class="cls-1" d="M21.65,7.92S19.8,3,16.87,1"/></g></g></svg>