<?xml version="1.0" encoding="UTF-8" standalone="no"?> <svg xmlns="http://www.w3.org/2000/svg" viewBox="0 0 33.75 47.63"><defs><style>.cls-1{fill:none;stroke:#333;stroke-linecap:round;stroke-linejoin:round;stroke-width:2px;}</style></defs><title>Asset 9</title><g id="Layer_2" data-name="Layer 2"><g id="Layer_2-2" data-name="Layer 2"><rect class="cls-1" x="1" y="24.45" width="31.75" height="5.52" rx="1"/><path class="cls-1" d="M3.19,30,6.58,45.81a1,1,0,0,0,1,.82H26.15a1,1,0,0,0,1-.82L30.56,30"/><path class="cls-1" d="M16.87,4.57h0a9.94,9.94,0,0,1,9.94,9.94v9.94a0,0,0,0,1,0,0H6.93a0,0,0,0,1,0,0V14.51A9.94,9.94,0,0,1,16.87,4.57Z"/><line class="cls-1" x1="17.01" y1="4" x2="17.01" y2="1"/><line class="cls-1" x1="22.95" y1="6.65" x2="24.8" y2="4.36"/><line class="cls-1" x1="27.01" y1="12" x2="30.01" y2="12"/><line class="cls-1" x1="27.01" y1="19" x2="30.01" y2="19"/><line class="cls-1" x1="10.9" y1="6.65" x2="9.05" y2="4.36"/><line class="cls-1" x1="7.01" y1="12" x2="4.01" y2="12"/><line class="cls-1" x1="7.01" y1="19" x2="4.01" y2="19"/><line class="cls-1" x1="17.01" y1="12" x2="17.01" y2="9"/><line class="cls-1" x1="17.01" y1="20" x2="17.01" y2="17"/></g></g></svg>