<?xml version="1.0" encoding="UTF-8" standalone="no"?> <svg xmlns="http://www.w3.org/2000/svg" viewBox="0 0 64 64"><g id="Layer_23" data-name="Layer 23"><path d="M4.58,16.71a.86.86,0,0,0,.27,1.66,2.1,2.1,0,0,0,1.75-2l.31-.11a6.39,6.39,0,0,0,2.3,2.58l-.14.29C8,19,6,20.61,7.37,21.53a.85.85,0,0,0,1.14-.39.48.48,0,0,1,.65-.22.47.47,0,0,1,.22.64.86.86,0,0,0,.77,1.23c1.3-.14,1.17-2.14.44-2.87l.14-.29a6.4,6.4,0,0,0,3.47.21l.1.3c-.84.65-1.18,2.76.2,2.91a.85.85,0,0,0,.8-1.13.48.48,0,0,1,.3-.61.49.49,0,0,1,.63.3.84.84,0,0,0,1.08.52c1.47-.75-.27-2.61-1.4-2.54l-.1-.3A6.53,6.53,0,0,0,18.41,17l.28.14a2.05,2.05,0,0,0,1.6,2.16.85.85,0,0,0,.37-1.61.49.49,0,0,1-.22-.65.48.48,0,0,1,.65-.22.85.85,0,0,0,1.14-.39c.51-1.58-2-1.66-2.79-.82l-.29-.14A6.49,6.49,0,0,0,19.36,12l.32-.11c.67.94,3.17,1.14,2.85-.47a.85.85,0,0,0-1.08-.53.48.48,0,1,1-.32-.91.85.85,0,0,0,.53-1.08c-.74-1.47-2.61.23-2.55,1.39l-.3.1a6.54,6.54,0,0,0-2.3-2.58l.14-.3c1.11.23,3.06-1.43,1.69-2.35a.85.85,0,0,0-1.13.39.49.49,0,0,1-.89-.42A.83.83,0,0,0,15.93,4c-1.56-.52-1.67,2-.81,2.78L15,7.09a6.68,6.68,0,0,0-3.47-.21l-.1-.29c.94-.67,1.14-3.19-.48-2.87a.85.85,0,0,0-.52,1.08.49.49,0,0,1-.93.32A.84.84,0,0,0,8.4,4.59c-1.47.75.27,2.6,1.39,2.53l.11.31A6.61,6.61,0,0,0,7.3,9.72L7,9.58c.19-1.13-1.46-3-2.37-1.68A.87.87,0,0,0,5.05,9a.48.48,0,0,1,.22.64.48.48,0,0,1-.65.22.85.85,0,0,0-1.14.4c-.51,1.56,2,1.67,2.77.8l.31.15a6.53,6.53,0,0,0-.21,3.45l-.3.1c-.65-.93-3.19-1.15-2.87.47a.84.84,0,0,0,1.08.53.49.49,0,0,1,.62.3A.47.47,0,0,1,4.58,16.71ZM10.08,12a3.06,3.06,0,0,1,1.77-1.56.85.85,0,0,1,.55,1.61,1.35,1.35,0,0,0-.79.69,1.37,1.37,0,0,0-.06,1.05.85.85,0,0,1-.8,1.13C9.46,14.79,9.66,12.89,10.08,12Z"/><path d="M42.55,22.67a.5.5,0,0,1,.62.3.49.49,0,0,1-.3.62.85.85,0,0,0,.27,1.65,2.1,2.1,0,0,0,1.75-2l.31-.11a6.49,6.49,0,0,0,2.3,2.59l-.14.28c-1.12-.2-3.08,1.44-1.7,2.36A.83.83,0,0,0,46.79,28a.5.5,0,0,1,.66-.22.49.49,0,0,1,.23.64.86.86,0,0,0,.76,1.23c1.3-.14,1.17-2.13.44-2.87L49,26.5a6.4,6.4,0,0,0,3.47.21l.1.3c-.84.65-1.18,2.76.2,2.91a.85.85,0,0,0,.8-1.13.49.49,0,0,1,.3-.61.5.5,0,0,1,.63.3A.85.85,0,0,0,55.6,29c1.47-.76-.27-2.62-1.4-2.55l-.1-.29a6.56,6.56,0,0,0,2.6-2.3L57,24a2.06,2.06,0,0,0,1.6,2.17A.86.86,0,0,0,59,24.56a.48.48,0,0,1-.22-.64.5.5,0,0,1,.65-.23.85.85,0,0,0,1.14-.39c.51-1.58-2.05-1.66-2.79-.82l-.29-.13a6.53,6.53,0,0,0,.21-3.45l.33-.11c.66.95,3.16,1.15,2.84-.47a.84.84,0,0,0-1.08-.52.5.5,0,0,1-.62-.3.49.49,0,0,1,.3-.62A.84.84,0,0,0,60,15.8c-.74-1.47-2.61.24-2.55,1.39l-.3.1a6.68,6.68,0,0,0-2.3-2.58l.14-.29c1.11.23,3.07-1.44,1.69-2.35a.85.85,0,0,0-1.14.39.48.48,0,0,1-.65.22.47.47,0,0,1-.22-.64.86.86,0,0,0-.39-1.14c-1.57-.52-1.68,2-.82,2.78l-.14.29a6.67,6.67,0,0,0-3.47-.22l-.1-.29c.94-.67,1.14-3.19-.48-2.86a.85.85,0,0,0-.52,1.08.49.49,0,0,1-.3.61.5.5,0,0,1-.63-.3.85.85,0,0,0-1.08-.53c-1.47.76.27,2.6,1.4,2.53l.1.31a6.56,6.56,0,0,0-2.6,2.3l-.28-.14c.19-1.14-1.46-3.06-2.37-1.69a.87.87,0,0,0,.4,1.14.48.48,0,0,1,.22.64.5.5,0,0,1-.65.23.85.85,0,0,0-1.14.39c-.51,1.56,2,1.67,2.77.81l.31.14a6.53,6.53,0,0,0-.21,3.45l-.3.1a2.19,2.19,0,0,0-2.34-.6A.85.85,0,0,0,42.55,22.67Zm5.82-3.78a3.06,3.06,0,0,1,1.77-1.56.85.85,0,0,1,.55,1.61,1.36,1.36,0,0,0-.79.7,1.34,1.34,0,0,0-.06,1,.85.85,0,0,1-.8,1.13C47.75,21.66,48,19.76,48.37,18.89Z"/><path d="M59.6,51.12c1.5.21,1.67-2,.11-1.72a.34.34,0,0,1-.43-.2c0-.23,0-.32.2-.42A.84.84,0,0,0,60,47.7c-.66-1.4-2.45.08-2.43,1.18l-.14,0a5.79,5.79,0,0,0-2-2.2l.06-.12c1.07.16,2.8-1.44,1.49-2.28a.85.85,0,0,0-1.14.4.34.34,0,0,1-.45.15.31.31,0,0,1-.15-.44.86.86,0,0,0-.39-1.14c-1.46-.52-1.68,1.79-.89,2.56L54,46a5.72,5.72,0,0,0-1.6-.28,3.22,3.22,0,0,0-.17-2.85L34.33,12a3.27,3.27,0,0,0-5.64,0L12,40.86l-.26,0,0-.12c.88-.67.94-3-.57-2.65a.84.84,0,0,0-.52,1.08c0,.23,0,.31-.21.42a.33.33,0,0,1-.43-.21.85.85,0,0,0-1.08-.52c-1.4.67.11,2.44,1.19,2.41l.06.16a5.86,5.86,0,0,0-2.21,1.95l-.14-.07c.15-1.1-1.45-2.78-2.27-1.47A.84.84,0,0,0,5.9,43a.32.32,0,0,1,.16.44.33.33,0,0,1-.45.15.86.86,0,0,0-1.14.4C4,45.45,6.25,45.66,7,44.86l.14.07A5.83,5.83,0,0,0,7,47.86l-.13,0c-.65-.86-3-1-2.65.56A.85.85,0,0,0,5.28,49a.32.32,0,0,1,.42.2h0c0,.22,0,.31-.2.42a.85.85,0,0,0,.27,1.65,2,2,0,0,0,1.64-1.76l.13,0a6,6,0,0,0,2,2.2l-.06.12c-1.07-.15-2.8,1.43-1.48,2.27a.84.84,0,0,0,1.13-.39.34.34,0,0,1,.45-.15c.19.13.23.22.16.44a.85.85,0,0,0,.76,1.22c1.22-.1,1.17-1.93.51-2.65l0-.11a5.94,5.94,0,0,0,3,.17l0,.13c-.77.63-1,2.58.29,2.7a.86.86,0,0,0,.8-1.13c0-.23,0-.31.21-.42a.34.34,0,0,1,.43.2.84.84,0,0,0,1.08.53c1.4-.68-.12-2.46-1.2-2.43L15.58,52a5.86,5.86,0,0,0,2.21-2l.14.07a1.88,1.88,0,0,0,1.51,2,.85.85,0,0,0,.37-1.61c-.19-.13-.23-.22-.16-.44a.34.34,0,0,1,.45-.16.85.85,0,0,0,1.14-.39c.52-1.47-1.82-1.65-2.57-.88l-.12-.06a4.64,4.64,0,0,0,.19-.82H45c.1.12.37.22.39.36a.33.33,0,0,1-.46.4.85.85,0,0,0-1.14.4c-.51,1.46,1.79,1.66,2.56.87l.13.06a6,6,0,0,0-.18,2.94l-.13,0c-.64-.86-3-1-2.65.57a.84.84,0,0,0,1.08.52.36.36,0,0,1,.43.21c0,.23,0,.31-.21.42A.85.85,0,0,0,45,56.18a2,2,0,0,0,1.64-1.76l.13,0a6,6,0,0,0,2,2.2l-.06.12c-1.07-.15-2.8,1.43-1.48,2.27a.84.84,0,0,0,1.13-.39.34.34,0,0,1,.45-.15.31.31,0,0,1,.16.44.85.85,0,0,0,.76,1.22c1.22-.1,1.18-1.93.51-2.65l.06-.11a5.9,5.9,0,0,0,3,.17l0,.13c-.78.63-1,2.58.28,2.69a.85.85,0,0,0,.8-1.12.32.32,0,0,1,.21-.42A.34.34,0,0,1,55,59a.84.84,0,0,0,1.08.53c1.41-.68-.12-2.46-1.2-2.43l0-.14A5.86,5.86,0,0,0,57.06,55l.14.07A1.89,1.89,0,0,0,58.71,57a.86.86,0,0,0,.37-1.62.31.31,0,0,1-.15-.43.34.34,0,0,1,.45-.16.84.84,0,0,0,1.13-.39c.52-1.47-1.82-1.66-2.57-.88l-.12-.06A5.83,5.83,0,0,0,58,50.54l.15-.06A2,2,0,0,0,59.6,51.12ZM28.82,21.8c.34-.65,4-.22,4.63-.34a1,1,0,0,1,1,1.13L32.89,35a1,1,0,0,1-1,.88c-.69,0-1.69,0-1.77-.88C30.23,34.85,28.1,21.47,28.82,21.8Zm2.69,21.87c-4.36,0-4.36-6.64,0-6.67S35.86,43.64,31.51,43.67Z"/></g></svg>