<?xml version="1.0" encoding="UTF-8" standalone="no"?>
<!-- Created with Inkscape (http://www.inkscape.org/) -->

<svg
   xmlns:dc="http://purl.org/dc/elements/1.1/"
   xmlns:cc="http://creativecommons.org/ns#"
   xmlns:rdf="http://www.w3.org/1999/02/22-rdf-syntax-ns#"
   xmlns:svg="http://www.w3.org/2000/svg"
   xmlns="http://www.w3.org/2000/svg"
   xmlns:sodipodi="http://sodipodi.sourceforge.net/DTD/sodipodi-0.dtd"
   xmlns:inkscape="http://www.inkscape.org/namespaces/inkscape"
   width="32"
   height="32"
   viewBox="0 0 8.4666665 8.4666669"
   version="1.1"
   id="svg8"
   inkscape:version="0.92.4 (5da689c313, 2019-01-14)"
   sodipodi:docname="23. Businessman Consultant Manager corporate, people, leader, user.svg">
  <defs
     id="defs2">
    <pattern
       y="0"
       x="0"
       height="6"
       width="6"
       patternUnits="userSpaceOnUse"
       id="EMFhbasepattern" />
    <pattern
       y="0"
       x="0"
       height="6"
       width="6"
       patternUnits="userSpaceOnUse"
       id="EMFhbasepattern-3" />
    <pattern
       y="0"
       x="0"
       height="6"
       width="6"
       patternUnits="userSpaceOnUse"
       id="EMFhbasepattern-2" />
    <pattern
       y="0"
       x="0"
       height="6"
       width="6"
       patternUnits="userSpaceOnUse"
       id="EMFhbasepattern-1" />
    <pattern
       y="0"
       x="0"
       height="6"
       width="6"
       patternUnits="userSpaceOnUse"
       id="EMFhbasepattern-5" />
  </defs>
  <sodipodi:namedview
     id="base"
     pagecolor="#ffffff"
     bordercolor="#666666"
     borderopacity="1.0"
     inkscape:pageopacity="0.0"
     inkscape:pageshadow="2"
     inkscape:zoom="7.9999995"
     inkscape:cx="24.36957"
     inkscape:cy="17.697081"
     inkscape:document-units="px"
     inkscape:current-layer="layer1"
     showgrid="false"
     units="px"
     inkscape:window-width="1280"
     inkscape:window-height="658"
     inkscape:window-x="-8"
     inkscape:window-y="-8"
     inkscape:window-maximized="1"
     showguides="true"
     guidecolor="#af0000"
     guideopacity="0.49803922"
     guidehicolor="#ff4b4b"
     guidehiopacity="0.49803922"
     inkscape:snap-global="true">
    <inkscape:grid
       type="xygrid"
       id="grid815"
       empspacing="1"
       originx="0"
       originy="0"
       spacingx="0"
       spacingy="0"
       snapvisiblegridlinesonly="true"
       visible="true"
       enabled="true"
       dotted="false" />
  </sodipodi:namedview>
  <metadata
     id="metadata5">
    <rdf:RDF>
      <cc:Work
         rdf:about="">
        <dc:format>image/svg+xml</dc:format>
        <dc:type
           rdf:resource="http://purl.org/dc/dcmitype/StillImage" />
        <dc:title />
      </cc:Work>
    </rdf:RDF>
  </metadata>
  <g
     inkscape:label="Guides"
     inkscape:groupmode="layer"
     id="layer1"
     transform="translate(0,-288.53332)">
    <path
       style="color:#000000;font-style:normal;font-variant:normal;font-weight:normal;font-stretch:normal;font-size:medium;line-height:normal;font-family:sans-serif;font-variant-ligatures:normal;font-variant-position:normal;font-variant-caps:normal;font-variant-numeric:normal;font-variant-alternates:normal;font-feature-settings:normal;text-indent:0;text-align:start;text-decoration:none;text-decoration-line:none;text-decoration-style:solid;text-decoration-color:#000000;letter-spacing:normal;word-spacing:normal;text-transform:none;writing-mode:lr-tb;direction:ltr;text-orientation:mixed;dominant-baseline:auto;baseline-shift:baseline;text-anchor:start;white-space:normal;shape-padding:0;clip-rule:nonzero;display:inline;overflow:visible;visibility:visible;opacity:1;isolation:auto;mix-blend-mode:normal;color-interpolation:sRGB;color-interpolation-filters:linearRGB;solid-color:#000000;solid-opacity:1;vector-effect:none;fill:#000000;fill-opacity:1;fill-rule:nonzero;stroke:none;stroke-width:0.26458329;stroke-linecap:round;stroke-linejoin:miter;stroke-miterlimit:4;stroke-dasharray:none;stroke-dashoffset:0;stroke-opacity:1;paint-order:normal;color-rendering:auto;image-rendering:auto;shape-rendering:auto;text-rendering:auto;enable-background:accumulate"
       d="m 4.2436235,289.06248 c -0.1172619,1.6e-4 -0.2325117,0.013 -0.3454519,0.0364 -0.01913,0.004 -0.036409,0.0123 -0.055304,0.017 -0.75326,0.18247 -1.3617017,0.85162 -1.3289078,1.66097 l 8.002e-4,0.0259 c -3.707e-4,0.0151 -0.00401,0.0293 -0.00401,0.0445 1e-7,0.0429 0.00911,0.0832 0.012022,0.12534 l 0.00641,0.131 0.00641,-0.003 c 0.08042,0.57357 0.4252741,1.05612 0.9065108,1.31729 -0.1203774,0.0369 -0.2361761,0.0795 -0.3406429,0.13504 -0.2982342,0.15857 -0.5267161,0.40422 -0.6780796,0.72697 -0.3027274,0.64556 -0.3381694,1.5824 -0.287743,2.99282 l 0.00561,0.19811 h 0.197172 3.9506555 l 0.014426,-0.19245 c 0.1043988,-1.33713 0.043155,-2.28152 -0.2877399,-2.94268 -0.2188228,-0.43723 -0.5678055,-0.72597 -1.021127,-0.88951 0.5793178,-0.28923 0.9818512,-0.89527 0.9818528,-1.5987 -10e-8,-0.0144 -0.00368,-0.0277 -0.004,-0.042 l 0.004,-8.3e-4 -0.012022,-0.16819 c -0.00298,-0.0374 -0.01388,-0.0718 -0.019236,-0.10837 -0.00381,-0.0214 -0.00748,-0.0427 -0.012022,-0.0639 -0.1046237,-0.56131 -0.4805645,-1.01137 -0.9754407,-1.23804 -0.018281,-0.009 -0.035087,-0.0195 -0.053701,-0.0275 -0.075218,-0.0314 -0.1537343,-0.0537 -0.2332402,-0.0744 -0.030323,-0.008 -0.05883,-0.0204 -0.08977,-0.0267 -0.1098908,-0.0222 -0.2227512,-0.0346 -0.3374368,-0.0348 z m 0.065724,0.27009 c 0.6763031,0.0976 1.2687906,0.54947 1.2663899,1.19275 -0.3320808,0.45946 -1.9150261,-0.66822 -1.8776911,-0.70051 0,0 -0.7192282,0.65895 -0.8217326,0.68488 0.04714,-0.86107 0.9419489,-1.18977 1.4330338,-1.17712 z m -0.5955239,0.87252 c 0.5711244,0.45929 1.182292,0.77777 1.8490896,0.69302 -0.026374,0.73686 -0.6055163,1.31808 -1.3192898,1.31808 -0.7177542,0 -1.2967201,-0.5875 -1.3168851,-1.33021 0.3042603,-0.17857 0.5723087,-0.40383 0.7870853,-0.68089 z m 0.096983,1.2348 c -0.2203712,0.007 -0.2762579,0.31182 -0.072938,0.39786 0.3348074,0.15737 0.6864115,0.12902 1.0026922,0.002 0.2448533,-0.10596 0.098712,-0.47729 -0.1514859,-0.38493 -0.2443031,0.0978 -0.452303,0.11242 -0.6780796,0.006 -0.031028,-0.0157 -0.0655,-0.0232 -0.1001891,-0.0218 z m 0.2244235,1.327 0.4175881,0.009 c 5.458e-4,0.0488 0.00528,0.10427 -0.018435,0.14637 H 4.064886 C 4.038605,292.88296 4.042012,292.8177 4.03523,292.76699 Z m -0.4464425,0.0396 c 0.011711,0.14001 0.054849,0.28352 0.1570965,0.41242 -0.086861,0.62186 -0.1740031,1.12939 -0.2620946,1.77255 l -0.012023,0.0889 0.7510173,0.9437 0.860023,-0.93803 -0.015229,-0.0978 c -0.102863,-0.63946 -0.2057519,-1.14763 -0.3077808,-1.76286 0.089192,-0.11884 0.1313884,-0.25119 0.1402647,-0.38492 0.3433443,0.1267 0.5802825,0.34295 0.7494142,0.68088 0.2482203,0.49597 0.2982355,1.37415 0.2276295,2.5335 H 2.5628516 c -0.030994,-1.22742 0.011056,-2.12358 0.2332402,-2.59737 0.1197171,-0.25529 0.2728932,-0.41944 0.4969378,-0.53856 0.085082,-0.0453 0.1860202,-0.0809 0.295758,-0.11241 z m 0.5490361,0.55312 h 0.2300341 c 0.09356,0.55683 0.1837201,1.03678 0.2757204,1.59546 l -0.3999548,0.43343 -0.3422459,-0.42777 c 0.078508,-0.56178 0.1572666,-1.04422 0.2364462,-1.60112 z"
       id="circle981-1"
       inkscape:connector-curvature="0"
       sodipodi:nodetypes="cccccccccccccccccscccccccccccccccccccsccccccccccccccccccccccccccccccccccccc" />
  </g>
</svg>
